# xmcd
# Copyright (C) 1995-1998 Ti Kan
#
# Track frame offsets:
#       150
#       4974
#       19000
#       27568
#       45404
#       57898
#       70152
#       84338
#       97829
#       115323
#       136529
#       149919
#       161306
#       179313
#
# Disc length: 2608 seconds
#
# Revision: 0
# Processed by: cddbd v1.5.2PL0 Copyright (c) Steve Scherf et al.
# Submitted via: CD-Transfer v1.0
#
DISCID=af0a2e0e
DTITLE=Les Tounesots - Su7 Aux Becs
DYEAR=99
DGENRE=
TTITLE0=Sucettes Aux Becs
TTITLE1=La Parisienne
TTITLE2=Les Ninibiks
TTITLE3=Un Quartier
TTITLE4=Les Fioles Impies
TTITLE5=Train 9637
TTITLE6=Des`armées
TTITLE7=Prisonnier D`une Garderie
TTITLE8=L`allumé Du Mazoot
TTITLE9=Comme Un Poisson Parapluie
TTITLE10=La Voile Inconnue
TTITLE11=Humour Acide
TTITLE12=Insomnie
TTITLE13=La Lune Croît Que Ce Corps Beau
EXTD=
EXTT0=
EXTT1=
EXTT2=
EXTT3=
EXTT4=
EXTT5=
EXTT6=
EXTT7=
EXTT8=
EXTT9=
EXTT10=
EXTT11=
EXTT12=
EXTT13=
PLAYORDER=
